HIERARCHY
ROOT locator2
{
  OFFSET 53.6172 30.1899 0.816905
  CHANNELS 6 Xposition Yposition Zposition Zrotation Xrotation Yrotation
  JOINT koshi
  {
    OFFSET 0 0 0
    CHANNELS 6 Xposition Yposition Zposition Zrotation Xrotation Yrotation
    JOINT sippo01
    {
      OFFSET 0 42.8363 -0.548134
      CHANNELS 6 Xposition Yposition Zposition Zrotation Xrotation Yrotation
      JOINT sippo02
      {
        OFFSET 0 44.0461 -3.28882
        CHANNELS 6 Xposition Yposition Zposition Zrotation Xrotation Yrotation
        JOINT sippo03
        {
          OFFSET 0 34.1929 -2.46662
          CHANNELS 6 Xposition Yposition Zposition Zrotation Xrotation Yrotation
          JOINT sippo04
          {
            OFFSET 0 30.0959 -1.75404
            CHANNELS 6 Xposition Yposition Zposition Zrotation Xrotation Yrotation
            JOINT sippo05
            {
              OFFSET 0 28.3637 -1.75404
              CHANNELS 6 Xposition Yposition Zposition Zrotation Xrotation Yrotation
              JOINT sippo06
              {
                OFFSET 0 31.6071 -3.2043
                CHANNELS 6 Xposition Yposition Zposition Zrotation Xrotation Yrotation
                End Site
                {
                  OFFSET 0 0 0
                }
              }
            }
          }
        }
      }
    }
    JOINT R_momo
    {
      OFFSET -27.891 13.5892 3.92723
      CHANNELS 6 Xposition Yposition Zposition Zrotation Xrotation Yrotation
      JOINT R_hiza
      {
        OFFSET 0 28.01 1.8232
        CHANNELS 6 Xposition Yposition Zposition Zrotation Xrotation Yrotation
        JOINT R_ashi
        {
          OFFSET 0 24.3992 -2.49174
          CHANNELS 6 Xposition Yposition Zposition Zrotation Xrotation Yrotation
          End Site
          {
            OFFSET 0 0 0
          }
        }
      }
    }
    JOINT L_momo
    {
      OFFSET 27.891 13.5892 3.92714
      CHANNELS 6 Xposition Yposition Zposition Zrotation Xrotation Yrotation
      JOINT L_hiza
      {
        OFFSET 0 28.0098 1.82319
        CHANNELS 6 Xposition Yposition Zposition Zrotation Xrotation Yrotation
        JOINT L_ashi
        {
          OFFSET 0 24.3992 -2.49171
          CHANNELS 6 Xposition Yposition Zposition Zrotation Xrotation Yrotation
          End Site
          {
            OFFSET 0 0 0
          }
        }
      }
    }
  }
  JOINT hara
  {
    OFFSET 0 2.15392 0
    CHANNELS 6 Xposition Yposition Zposition Zrotation Xrotation Yrotation
    JOINT mune
    {
      OFFSET 0 62.0609 0.472494
      CHANNELS 6 Xposition Yposition Zposition Zrotation Xrotation Yrotation
      JOINT R_kata
      {
        OFFSET 22.6695 9.65301 -5.3622
        CHANNELS 6 Xposition Yposition Zposition Zrotation Xrotation Yrotation
        JOINT R_hiji
        {
          OFFSET 0 25.813 1.69098
          CHANNELS 6 Xposition Yposition Zposition Zrotation Xrotation Yrotation
          JOINT R_te
          {
            OFFSET 0 28.5636 -0.966307
            CHANNELS 6 Xposition Yposition Zposition Zrotation Xrotation Yrotation
            End Site
            {
              OFFSET 0 0 0
            }
          }
        }
      }
      JOINT L_kata
      {
        OFFSET -22.6695 9.65298 -5.3622
        CHANNELS 6 Xposition Yposition Zposition Zrotation Xrotation Yrotation
        JOINT L_hiji
        {
          OFFSET 0 25.813 1.69102
          CHANNELS 6 Xposition Yposition Zposition Zrotation Xrotation Yrotation
          JOINT L_te
          {
            OFFSET 0 28.5636 -0.966295
            CHANNELS 6 Xposition Yposition Zposition Zrotation Xrotation Yrotation
            End Site
            {
              OFFSET 0 0 0
            }
          }
        }
      }
      JOINT kubi
      {
        OFFSET 0 23.1438 -0.944988
        CHANNELS 6 Xposition Yposition Zposition Zrotation Xrotation Yrotation
        JOINT atama
        {
          OFFSET 0 20.8625 4.12737
          CHANNELS 6 Xposition Yposition Zposition Zrotation Xrotation Yrotation
          JOINT ago
          {
            OFFSET 0 7.552 -7.58201
            CHANNELS 6 Xposition Yposition Zposition Zrotation Xrotation Yrotation
            End Site
            {
              OFFSET 0 0 0
            }
          }
        }
      }
    }
  }
}
MOTION
Frames:	7
Frame Time:	0.0333333
126.564 29.9829 0.279645 -90 -3.50835e-015 -90 0 0 0 -171.858 3.024 0.226251 -4.76837e-007 42.8363 -0.548138 2.13074 -14.989 3.51089 -9.53674e-007 44.0461 -3.28883 4.87164 9.67216 -4.50955 -1.87796e-006 34.1929 -2.46662 5.76503 1.96139 -1.32705 -3.59683e-006 30.0959 -1.75404 5.93378 10.0889 -0.989549 -1.50046e-005 28.3637 -1.75404 9.56276 -5.59389 5.7357 -7.44568e-006 31.6071 -3.2043 5.38223 -5.20109 -5.5926 -27.891 13.5892 3.92723 101.837 -36.9261 -54.2804 7.62939e-006 28.01 1.8232 14.9578 -85.1563 2.39935 -7.10543e-015 24.3992 -2.49173 -154.286 43.6668 -164.146 27.891 13.5892 3.92713 -81.2253 -25.5479 75.6617 -1.59872e-014 28.0098 1.82319 -3.1047 -52.925 16.5013 -2.55621e-007 24.3992 -2.49173 130.303 73.0762 170.457 6.07685e-007 2.15392 -3.55271e-015 -1.50237 -3.5932 -0.236852 0 62.0609 0.4725 3.97569e-016 1.0871e-016 -4.96962e-017 22.6695 9.653 -5.36221 -130.629 33.7925 38.7889 -2.84217e-014 25.813 1.69098 -179.754 -61.415 -174.451 3.40185e-006 28.5636 -0.966315 35.032 12.3993 -71.1335 -22.6695 9.65298 -5.3622 152.877 5.0681 -42.0696 -2.84217e-014 25.813 1.69103 179.743 -75.4817 -179.323 3.78624e-006 28.5636 -0.966297 -50.3948 12.2474 97.7503 -1.00275e-012 23.1438 -0.944992 1.04748 -0.481599 2.01974 1.39704e-009 20.8625 4.12738 1.20619 -0.276701 1.91066 3.79496e-008 7.55202 -7.58201 -1.02957e-005 1.56562 1.02945e-005 
127.781 29.9806 0.215852 -90 -3.50835e-015 -90 0 0 0 -171.532 2.67387 0.217201 -4.76837e-007 42.8363 -0.548138 2.32644 -14.5348 3.72803 -9.53674e-007 44.0461 -3.28883 4.35212 9.74811 -4.09325 -1.84624e-006 34.1929 -2.46662 5.11858 2.38464 -1.11294 -3.37777e-006 30.0959 -1.75404 5.75648 10.4172 -1.2148 -1.4727e-005 28.3637 -1.75404 9.63173 -5.62475 5.7642 -7.21583e-006 31.6071 -3.2043 5.46645 -4.29312 -6.20542 -27.891 13.5892 3.92723 98.6842 -37.3828 -56.3611 7.62939e-006 28.01 1.8232 12.6675 -83.9186 -1.3584 -3.55271e-015 24.3992 -2.49173 -154.539 42.6705 -164.109 27.891 13.5892 3.92713 -79.4624 -24.6206 76.7481 2.30926e-014 28.0098 1.82319 -3.29535 -52.2782 17.5412 -2.86582e-007 24.3992 -2.49173 127.864 74.4446 171.972 6.07685e-007 2.15392 0 -1.87766 -4.02868 -0.302459 4.44089e-016 62.0609 0.4725 3.97569e-016 2.1975e-016 1.26899e-013 22.6695 9.653 -5.36221 -127.216 34.6599 41.7944 -2.84217e-014 25.813 1.69098 -179.773 -63.3416 -173.764 3.37413e-006 28.5636 -0.966315 22.7446 12.0676 -65.6012 -22.6695 9.65298 -5.3622 154.467 6.19367 -42.2936 -4.26326e-014 25.813 1.69103 179.704 -77.0574 -179.663 3.7887e-006 28.5636 -0.966297 -50.0693 10.0928 95.6369 -1.0032e-012 23.1438 -0.944992 1.31655 1.08364 3.95423 1.39705e-009 20.8625 4.12738 1.80907 1.5179 3.62836 6.17342e-008 7.55202 -7.58201 -1.00966e-005 0.44719 1.00955e-005 
129.009 29.9783 0.151428 -90 -3.50835e-015 -90 0 0 0 -171.904 2.32682 0.241089 -4.76837e-007 42.8363 -0.548138 2.5229 -14.0771 3.94454 -9.53674e-007 44.0461 -3.28883 3.82644 9.82424 -3.67084 -1.81411e-006 34.1929 -2.46662 4.46516 2.81296 -0.414659 -3.16865e-006 30.0959 -1.75404 5.57694 10.7492 -1.44024 -1.44402e-005 28.3637 -1.75404 9.70756 -4.8691 5.66223 -6.99612e-006 31.6071 -3.2043 5.5524 -3.37792 -6.82677 -27.891 13.5892 3.92723 95.8422 -37.814 -58.4886 7.62939e-006 28.01 1.8232 11.1425 -82.6634 -4.24329 0 24.3992 -2.49173 -154.779 41.6618 -164.001 27.891 13.5892 3.92713 -76.8814 -23.5229 77.5666 0 28.0098 1.82319 -3.33787 -50.3336 18.5443 -3.22458e-007 24.3992 -2.49173 123.251 76.5869 175.457 6.07685e-007 2.15392 -3.55271e-015 -2.25152 -3.79502 -0.347645 0 62.0609 0.4725 -7.98498e-023 1.37484e-013 3.32769e-008 22.6695 9.653 -5.36221 -124.028 34.9927 45.2254 5.68434e-014 25.813 1.69098 -179.799 -64.6344 -173.08 3.34505e-006 28.5636 -0.966315 15.4642 11.927 -61.867 -22.6695 9.65298 -5.3622 155.013 7.07151 -42.5497 1.42109e-014 25.813 1.69103 179.654 -78.6477 179.985 3.79123e-006 28.5636 -0.966297 -50.2788 7.83055 93.1967 -1.00364e-012 23.1438 -0.944992 0.86421 2.96525 5.92182 1.39705e-009 20.8625 4.12738 1.71013 3.48818 5.55972 6.82269e-008 7.55203 -7.58201 -9.89955e-006 -0.682315 9.89837e-006 
130.25 29.9759 0.0879253 -90 -3.50835e-015 -90 0 0 0 -172.277 1.97611 0.260123 -4.76837e-007 42.8363 -0.548138 2.2026 -13.6139 4.038 -9.53674e-007 44.0461 -3.28883 3.29768 10.0118 -3.25029 -1.78124e-006 34.1929 -2.46662 3.80832 3.92725 0.255465 -2.95629e-006 30.0959 -1.75404 5.39665 11.0847 -1.66468 -1.41391e-005 28.3637 -1.75404 9.77442 -4.10079 5.55344 -6.75491e-006 31.6071 -3.2043 5.64049 -2.45341 -7.45742 -27.891 13.5892 3.92723 92.9264 -38.0613 -60.6793 7.62939e-006 28.01 1.8232 9.44058 -80.8333 -7.32885 1.06581e-014 24.3992 -2.49173 -154.652 41.514 -164.44 27.891 13.5892 3.92713 -74.4401 -22.1612 77.4495 6.21725e-015 28.0098 1.82319 -3.24894 -47.5497 19.4728 -3.56402e-007 24.3992 -2.49173 112.599 79.7469 -175.329 6.07685e-007 2.15392 0 -2.63195 -3.55818 -0.650493 8.88178e-016 62.0609 0.4725 -2.60786e-028 4.95657e-014 3.01457e-013 22.6695 9.653 -5.36221 -120.826 35.122 48.6286 0 25.813 1.69098 -179.829 -65.94 -172.392 3.32033e-006 28.5636 -0.966315 8.12569 11.5504 -59.3133 -22.6695 9.65298 -5.3622 155.561 7.95489 -41.4995 2.84217e-014 25.813 1.69103 179.582 -80.2783 179.607 3.79356e-006 28.5636 -0.966297 -50.5943 5.59193 90.7057 -1.00453e-012 23.1438 -0.944992 -0.420106 5.24161 7.7554 1.39705e-009 20.8625 4.12738 0.888124 5.24152 7.68061 5.44097e-008 7.55203 -7.58201 -9.70141e-006 -1.84005 9.7003e-006 
131.508 29.9736 0.180958 -90 -3.50835e-015 -90 0 0 0 -172.644 1.6296 0.274549 -4.76837e-007 42.8363 -0.548138 1.88586 -12.6148 4.11604 -9.53674e-007 44.0461 -3.28883 2.77729 10.1957 -2.83363 -1.74904e-006 34.1929 -2.46662 3.16393 5.02062 0.936594 -2.75093e-006 30.0959 -1.75404 5.22211 11.6435 -1.90595 -1.38392e-005 28.3637 -1.75404 9.5594 -3.3493 5.4283 -6.40011e-006 31.6071 -3.2043 5.72831 -1.5472 -8.07864 -27.891 13.5892 3.92723 90.0479 -38.1191 -62.7359 7.62939e-006 28.01 1.8232 8.33303 -79.0339 -9.79547 0 24.3992 -2.49173 -154.855 41.4452 -164.656 27.891 13.5892 3.92713 -72.5483 -20.8675 76.2989 1.77636e-014 28.0098 1.82319 -3.08712 -44.1877 20.2503 -3.82365e-007 24.3992 -2.49173 91.4176 82.6542 -155.634 6.07685e-007 2.15392 -3.55271e-015 -3.00586 -3.3252 -0.946827 0 62.0609 0.4725 1.59028e-015 2.14936e-015 -9.93923e-017 22.6695 9.653 -5.36221 -117.731 35.048 51.9331 5.68434e-014 25.813 1.69098 -179.861 -67.2199 -171.721 3.30079e-006 28.5636 -0.966315 0.954651 10.9798 -56.9549 -22.6695 9.65298 -5.3622 156.162 7.77023 -40.9589 0 25.813 1.69103 179.292 -84.1732 179.016 3.79616e-006 28.5636 -0.966297 -51.0035 3.42755 88.5703 -1.00453e-012 23.1438 -0.944992 -1.68812 7.02784 9.03051 1.39703e-009 20.8625 4.12738 -0.222911 7.03765 8.87127 3.07803e-008 7.55203 -7.58201 8.21318e-007 -4.68953 1.00506e-005 
132.778 29.9713 0.274914 -90 -3.50835e-015 -90 0 0 0 -173.013 1.28018 0.28414 -4.76837e-007 42.8363 -0.548138 1.56922 -11.6053 4.20636 -9.53674e-007 44.0461 -3.28883 2.25091 10.3809 -2.40922 -1.71664e-006 34.1929 -2.46662 2.51217 6.12587 1.64981 -2.54699e-006 30.0959 -1.75404 5.04611 12.2078 -2.14551 -1.35353e-005 28.3637 -1.75403 9.34434 -2.59143 5.30796 -6.02863e-006 31.6071 -3.2043 5.81829 -0.632827 -8.70841 -27.891 13.5892 3.92723 87.3151 -38.0004 -64.5374 7.62939e-006 28.01 1.8232 7.53337 -77.2136 -11.9704 3.55271e-015 24.3992 -2.49173 -155.063 41.3749 -164.875 27.891 13.5892 3.92713 -70.778 -19.4062 74.9012 8.88178e-016 28.0098 1.82319 -2.94471 -40.9537 21.0088 -4.00629e-007 24.3992 -2.49173 53.1393 83.7136 -118.52 6.07685e-007 2.15392 0 -3.3819 -3.09089 -1.2416 -8.88178e-016 62.0609 0.4725 3.97569e-016 -3.85145e-015 1.98785e-016 22.6695 9.653 -5.36221 -115.33 34.3338 56.4118 -2.84217e-014 25.813 1.69098 -179.902 -67.2554 -171.053 3.26234e-006 28.5636 -0.966315 -6.3432 13.9425 -54.3278 -22.6695 9.65298 -5.3622 156.768 7.58102 -40.4087 1.42109e-014 25.813 1.69103 177.768 -88.1057 177.188 3.79862e-006 28.5636 -0.966297 -51.5131 1.25117 86.3119 -1.00364e-012 23.1438 -0.944992 -3.07048 8.67448 9.66011 1.39705e-009 20.8625 4.12738 -1.14871 8.84986 9.81594 1.38949e-008 7.55203 -7.58201 -8.77551e-006 -7.56669 8.77421e-006 
134.06 29.969 0.36979 -90 -3.50835e-015 -90 0 0 0 -173.388 0.924747 0.289584 -4.76837e-007 42.8363 -0.548138 1.25181 -10.584 4.30923 -9.53674e-007 44.0461 -3.28883 1.71853 10.5672 -1.97644 -1.68406e-006 34.1929 -2.46662 1.85214 7.24254 2.39599 -2.34502e-006 30.0959 -1.75404 4.8686 12.7762 -2.38314 -1.32282e-005 28.3637 -1.75403 9.12467 -0.623172 4.99909 -5.63865e-006 31.6071 -3.2043 5.60957 0.295537 -9.34691 -27.891 13.5892 3.92723 84.5856 -37.7168 -66.3318 7.62939e-006 28.01 1.8232 6.93017 -75.3734 -13.8994 1.42109e-014 24.3992 -2.49173 -155.269 41.3045 -165.094 27.891 13.5892 3.92713 -69.1598 -17.7952 75.0516 1.33227e-014 28.0098 1.82319 -2.83621 -38.3525 21.2833 -4.02811e-007 24.3992 -2.49173 22.1609 82.1914 -88.484 6.07685e-007 2.15392 -7.10543e-015 -3.76111 -2.85466 -1.53576 -1.77636e-015 62.0609 0.4725 -3.18055e-015 -7.0817e-016 -5.96354e-016 22.6695 9.653 -5.36221 -110.515 30.6942 57.1645 -8.52651e-014 25.813 1.69098 -179.944 -67.2757 -171.56 3.29416e-006 28.5636 -0.966315 -13.8209 16.6691 -52.7069 -22.6695 9.65298 -5.3622 156.459 7.33704 -39.7306 0 25.813 1.69103 2.07874 -87.9193 1.19233 3.80118e-006 28.5636 -0.966298 -52.1292 -0.885138 83.9869 -1.00364e-012 23.1438 -0.944992 -4.57491 10.3257 10.0151 1.39706e-009 20.8625 4.12738 -2.09165 10.5946 10.7236 -2.94951e-009 7.55203 -7.58201 -8.05038e-006 -12.4314 8.04915e-006 
